<?xml version="1.0" encoding="UTF-8" standalone="no"?>
<!-- Created with Inkscape (http://www.inkscape.org/) -->

<svg
   width="33.373871"
   height="142.0712"
   viewBox="0 0 33.373871 142.0712"
   version="1.1"
   id="svg1"
   sodipodi:docname="circle_puzzle.svg"
   inkscape:version="1.3.2 (091e20e, 2023-11-25, custom)"
   xmlns:inkscape="http://www.inkscape.org/namespaces/inkscape"
   xmlns:sodipodi="http://sodipodi.sourceforge.net/DTD/sodipodi-0.dtd"
   xmlns="http://www.w3.org/2000/svg"
   xmlns:svg="http://www.w3.org/2000/svg">
  <sodipodi:namedview
     id="namedview1"
     pagecolor="#505050"
     bordercolor="#eeeeee"
     borderopacity="1"
     inkscape:showpageshadow="true"
     inkscape:pageopacity="0"
     inkscape:pagecheckerboard="true"
     inkscape:deskcolor="#505050"
     inkscape:document-units="px"
     inkscape:zoom="6.2644781"
     inkscape:cx="189.32144"
     inkscape:cy="435.55105"
     inkscape:window-width="1920"
     inkscape:window-height="1057"
     inkscape:window-x="-8"
     inkscape:window-y="-8"
     inkscape:window-maximized="1"
     inkscape:current-layer="layer1"
     inkscape:export-bgcolor="#ffffff00" />
  <defs
     id="defs1" />
  <g
     inkscape:label="Layer 1"
     inkscape:groupmode="layer"
     id="layer1"
     transform="translate(-182.31306,-357.31308)">
    <path
       id="path6-1"
       style="fill:#ffcc00;fill-opacity:1;stroke:#000000;stroke-width:1.37386;stroke-linejoin:bevel;stroke-miterlimit:5;stroke-dasharray:none;stroke-opacity:1;paint-order:stroke fill markers"
       d="m 199,358 a 16,16 0 0 0 -16,16 16,16 0 0 0 14.80469,15.91406 c -0.98951,2.16063 -1.74414,14.53605 -1.74414,29.57227 0,15.32968 0.78474,27.88636 1.80273,29.67969 A 16,16 0 0 0 183,465.08594 a 16,16 0 0 0 5.05664,11.62695 c -0.32367,-0.15017 2.66001,1.64158 6.84961,10.00781 7.99907,15.9734 0.13566,15.9611 8.16797,0.01 4.30287,-8.54506 7.30179,-10.20343 6.81055,-9.96094 A 16,16 0 0 0 215,465.08594 16,16 0 0 0 200.1543,449.13281 c 1.00925,-1.90837 1.78515,-14.40689 1.78515,-29.64648 0,-15.03622 -0.75463,-27.41164 -1.74414,-29.57227 A 16,16 0 0 0 215,374 16,16 0 0 0 199,358 Z m 0,3.5 A 12.5,12.5 0 0 1 211.5,374 12.5,12.5 0 0 1 199,386.5 12.5,12.5 0 0 1 186.5,374 12.5,12.5 0 0 1 199,361.5 Z"
       inkscape:label="Clock Hand"
       inkscape:export-filename="..\Godot\Clock Puzzle\assets\icons\clock_hand.svg"
       inkscape:export-xdpi="96"
       inkscape:export-ydpi="96" />
  </g>
</svg>
