<?xml version="1.0" encoding="UTF-8" standalone="no"?>
<!-- Created with Inkscape (http://www.inkscape.org/) -->

<svg
   width="128"
   height="128"
   viewBox="0 0 128 128"
   version="1.1"
   id="svg1"
   sodipodi:docname="circle_puzzle.svg"
   inkscape:version="1.3.2 (091e20e, 2023-11-25, custom)"
   xmlns:inkscape="http://www.inkscape.org/namespaces/inkscape"
   xmlns:sodipodi="http://sodipodi.sourceforge.net/DTD/sodipodi-0.dtd"
   xmlns="http://www.w3.org/2000/svg"
   xmlns:svg="http://www.w3.org/2000/svg">
  <sodipodi:namedview
     id="namedview1"
     pagecolor="#505050"
     bordercolor="#eeeeee"
     borderopacity="1"
     inkscape:showpageshadow="true"
     inkscape:pageopacity="0"
     inkscape:pagecheckerboard="true"
     inkscape:deskcolor="#505050"
     inkscape:document-units="px"
     inkscape:zoom="0.78305976"
     inkscape:cx="731.74491"
     inkscape:cy="459.0965"
     inkscape:window-width="1920"
     inkscape:window-height="1057"
     inkscape:window-x="-8"
     inkscape:window-y="-8"
     inkscape:window-maximized="1"
     inkscape:current-layer="layer1"
     inkscape:export-bgcolor="#ffffff00" />
  <defs
     id="defs1" />
  <g
     inkscape:label="Layer 1"
     inkscape:groupmode="layer"
     id="layer1"
     transform="translate(-768,-292)">
    <g
       id="g5"
       inkscape:label="Hours"
       transform="translate(384,99.999998)"
       style="fill:#ffffff">
      <path
         id="path4-6"
         style="fill:#ffffff;fill-opacity:1;stroke:none;stroke-width:0.554013;stroke-linejoin:bevel;stroke-miterlimit:5;stroke-dasharray:none;stroke-opacity:1;paint-order:stroke fill markers"
         d="m 448,192 a 64,64 0 0 0 -64,64 64,64 0 0 0 64,64 64,64 0 0 0 64,-64 64,64 0 0 0 -64,-64 z m 0,1 a 63,63 0 0 1 63,63 63,63 0 0 1 -63,63 63,63 0 0 1 -63,-63 63,63 0 0 1 63,-63 z"
         inkscape:label="Hour"
         inkscape:export-filename="..\Godot\Clock Puzzle\assets\hour_circle.svg"
         inkscape:export-xdpi="96"
         inkscape:export-ydpi="96" />
    </g>
  </g>
</svg>
